<svg width="180" height="208" viewBox="0 0 180 208" fill="none" xmlns="http://www.w3.org/2000/svg">
<g filter="url(#filter0_d)">
<path d="M60.0056 24.7298C60.0056 24.7298 59.9183 24.9558 59.9877 25.1124C59.958 35.6167 50.6609 44.2318 40 44.2715L40.1189 91.0542C40.0198 116.202 68.3947 137.54 90.0872 147.6C115.284 135.125 140 118.18 139.962 91.0324L140 44.1803C129.339 44.22 120.845 35.6187 120.875 25.1144C120.805 24.9578 120.892 24.7318 120.892 24.7318C120.892 24.7318 107.002 20.0198 90.1328 20C73.1067 20.0495 60.0056 24.7298 60.0056 24.7298Z" fill="white"/>
<path fill-rule="evenodd" clip-rule="evenodd" d="M130.711 51.1168C121.846 48.1578 114.991 40.6816 112.821 31.6015L112.77 31.388L112.554 31.3337C107.257 30.0718 99.0257 28.5658 89.8855 28.5658C80.8613 28.5658 72.9457 30.0403 67.8944 31.2758L67.678 31.3278L67.6283 31.5446C65.4726 40.6513 58.6129 48.152 49.7258 51.1168L49.4775 51.1984V90.6227C49.4775 99.5913 54.1784 108.768 63.4464 117.889C72.2119 126.519 82.7193 132.758 89.9892 136.469L90.1533 136.553L90.3207 136.469C110.416 126.077 130.959 112.502 130.959 90.6227V51.1984L130.711 51.1168Z" fill="#0075FF"/>
<path fill-rule="evenodd" clip-rule="evenodd" d="M85.6818 64.5258C85.2394 65.4038 84.8113 66.2152 84.3405 66.9868C80.7016 72.9065 77.1348 79.1056 75.9644 85.9431C75.7361 87.2864 75.5652 88.7366 75.2653 90.08C74.8087 92.0621 73.6673 91.5431 71.9121 91.4104C70.0858 91.2772 68.5305 91.5566 68.9158 93.4989C69.0583 93.9643 69.2011 94.3237 69.3439 94.7359C69.7863 95.9335 70.2429 96.2259 70.7564 98.5138C70.999 99.5782 71.5268 103.556 72.1831 104.034C72.54 104.3 73.8528 104.646 74.4807 103.063C75.4509 100.629 75.7789 97.5563 77.8193 95.9335C80.6304 93.7247 93.5154 93.8713 97.6389 94.6425C102.134 95.4945 103.689 97.2769 104.531 101.786C104.688 102.637 104.873 103.848 105.529 104.247C105.886 104.473 106.628 104.46 107.085 104.287C108.483 103.729 108.098 99.1924 109.996 94.9621C110.396 94.0975 110.766 93.0465 110.167 92.1422C109.539 91.2106 108.055 91.397 107.299 91.6629C106.2 92.0487 105.73 92.6205 104.945 91.3836C104.031 89.9338 103.404 88.231 102.847 86.4884L99.8648 75.5936C99.665 74.0237 99.2084 72.6803 98.9232 71.2435L97.1396 62.2911C96.9397 61.2401 96.4119 58.8055 96.4836 57.7147H99.665V55.7326L79.974 55.7062L79.9313 57.6083C82.414 57.6217 84.3832 57.2891 85.7245 58.2869C87.7506 59.7899 86.6092 62.6635 85.6818 64.5258ZM95.1846 92.0756C95.1704 91.4238 94.5852 89.6942 94.3569 88.9892C92.9159 84.7459 90.904 77.4028 89.9766 73.2123L89.2348 69.9533C89.0634 69.2881 88.6923 67.0932 88.464 66.6676C88.3354 66.7074 88.2072 66.8138 88.0363 66.947C86.9087 68.0378 85.1397 70.8179 84.4402 72.1215C82.471 75.8194 80.8302 79.0654 79.76 83.3225C79.3319 85.0383 78.0476 89.4148 79.703 91.051C80.5592 91.8891 82.5569 92.1954 84.5403 92.1815L95.1846 92.0756Z" fill="white"/>
</g>
<defs>
<filter id="filter0_d" x="0" y="0" width="180" height="207.6" filterUnits="userSpaceOnUse" color-interpolation-filters="sRGB">
<feFlood flood-opacity="0" result="BackgroundImageFix"/>
<feColorMatrix in="SourceAlpha" type="matrix" values="0 0 0 0 0 0 0 0 0 0 0 0 0 0 0 0 0 0 127 0" result="hardAlpha"/>
<feOffset dy="20"/>
<feGaussianBlur stdDeviation="20"/>
<feColorMatrix type="matrix" values="0 0 0 0 0 0 0 0 0 0 0 0 0 0 0 0 0 0 0.15 0"/>
<feBlend mode="normal" in2="BackgroundImageFix" result="effect1_dropShadow"/>
<feBlend mode="normal" in="SourceGraphic" in2="effect1_dropShadow" result="shape"/>
</filter>
</defs>
</svg>
