<svg width="193" height="208" viewBox="0 0 193 208" fill="none" xmlns="http://www.w3.org/2000/svg">
<path d="M23.2344 199.178H20.25V193.6H3.92188V199.194H0.921875L0.90625 191.147H2.76562C3.74479 190.043 4.52083 188.563 5.09375 186.709C5.67708 184.845 6.04167 182.803 6.1875 180.584L6.6875 170.85H20.2969V191.147H23.2656L23.2344 199.178ZM6.1875 191.147H17.2812V173.319H9.57812L9.25 180.006C9.11458 182.621 8.76562 184.85 8.20312 186.694C7.65104 188.537 6.97917 190.022 6.1875 191.147ZM37.3125 176.694H40.2031V193.6H37.3125V181.272L29.5156 193.6H26.625V176.694H29.5156V189.037L37.3125 176.694ZM55.2812 193.6C55.1146 193.267 54.9792 192.673 54.875 191.819C53.5312 193.214 51.9271 193.912 50.0625 193.912C48.3958 193.912 47.026 193.444 45.9531 192.506C44.8906 191.558 44.3594 190.36 44.3594 188.912C44.3594 187.152 45.026 185.787 46.3594 184.819C47.7031 183.839 49.5885 183.35 52.0156 183.35H54.8281V182.022C54.8281 181.011 54.526 180.209 53.9219 179.615C53.3177 179.011 52.4271 178.709 51.25 178.709C50.2188 178.709 49.3542 178.97 48.6562 179.49C47.9583 180.011 47.6094 180.642 47.6094 181.381H44.7031C44.7031 180.537 45 179.725 45.5938 178.944C46.1979 178.152 47.0104 177.527 48.0312 177.069C49.0625 176.61 50.1927 176.381 51.4219 176.381C53.3698 176.381 54.8958 176.871 56 177.85C57.1042 178.819 57.6771 180.157 57.7188 181.865V189.647C57.7188 191.199 57.9167 192.433 58.3125 193.35V193.6H55.2812ZM50.4844 191.397C51.3906 191.397 52.25 191.162 53.0625 190.694C53.875 190.225 54.4635 189.615 54.8281 188.865V185.397H52.5625C49.0208 185.397 47.25 186.433 47.25 188.506C47.25 189.412 47.5521 190.121 48.1562 190.631C48.7604 191.142 49.5365 191.397 50.4844 191.397ZM73.1719 179.084H65.375V193.6H62.4688V176.694H73.1719V179.084ZM89.5 193.6H86.6094V186.381H78.8438V193.6H75.9375V176.694H78.8438V184.022H86.6094V176.694H89.5V193.6ZM93.3906 184.99C93.3906 183.334 93.7135 181.845 94.3594 180.522C95.0156 179.199 95.9219 178.178 97.0781 177.459C98.2448 176.74 99.5729 176.381 101.062 176.381C103.365 176.381 105.224 177.178 106.641 178.772C108.068 180.365 108.781 182.485 108.781 185.131V185.334C108.781 186.98 108.464 188.459 107.828 189.772C107.203 191.074 106.302 192.089 105.125 192.819C103.958 193.548 102.615 193.912 101.094 193.912C98.8021 193.912 96.9427 193.115 95.5156 191.522C94.099 189.928 93.3906 187.819 93.3906 185.194V184.99ZM96.2969 185.334C96.2969 187.209 96.7292 188.714 97.5938 189.85C98.4688 190.985 99.6354 191.553 101.094 191.553C102.562 191.553 103.729 190.98 104.594 189.834C105.458 188.678 105.891 187.063 105.891 184.99C105.891 183.136 105.448 181.636 104.562 180.49C103.688 179.334 102.521 178.756 101.062 178.756C99.6354 178.756 98.4844 179.324 97.6094 180.459C96.7344 181.595 96.2969 183.22 96.2969 185.334ZM119.188 191.553C120.219 191.553 121.12 191.24 121.891 190.615C122.661 189.99 123.089 189.209 123.172 188.272H125.906C125.854 189.24 125.521 190.162 124.906 191.037C124.292 191.912 123.469 192.61 122.438 193.131C121.417 193.652 120.333 193.912 119.188 193.912C116.885 193.912 115.052 193.147 113.688 191.615C112.333 190.074 111.656 187.97 111.656 185.303V184.819C111.656 183.173 111.958 181.709 112.562 180.428C113.167 179.147 114.031 178.152 115.156 177.444C116.292 176.735 117.63 176.381 119.172 176.381C121.068 176.381 122.641 176.949 123.891 178.084C125.151 179.22 125.823 180.694 125.906 182.506H123.172C123.089 181.412 122.672 180.517 121.922 179.819C121.182 179.11 120.266 178.756 119.172 178.756C117.703 178.756 116.562 179.287 115.75 180.35C114.948 181.402 114.547 182.928 114.547 184.928V185.475C114.547 187.423 114.948 188.923 115.75 189.975C116.552 191.027 117.698 191.553 119.188 191.553ZM141.719 179.037H136.047V193.6H133.156V179.037H127.594V176.694H141.719V179.037ZM169.797 193.6H167.875V172.49H155V193.6H153.078V170.85H169.797V193.6ZM189.266 172.49H177.484V180.725H183.125C184.677 180.725 186.021 180.985 187.156 181.506C188.292 182.017 189.156 182.756 189.75 183.725C190.354 184.683 190.656 185.819 190.656 187.131C190.656 189.142 189.984 190.725 188.641 191.881C187.297 193.027 185.438 193.6 183.062 193.6H175.547V170.85H189.266V172.49ZM177.484 182.365V191.975H183.109C184.87 191.975 186.245 191.543 187.234 190.678C188.224 189.803 188.719 188.61 188.719 187.1C188.719 185.662 188.24 184.522 187.281 183.678C186.323 182.824 184.979 182.386 183.25 182.365H177.484Z" fill="black"/>
<g filter="url(#filter0_d)">
<path d="M66.0056 24.7298C66.0056 24.7298 65.9183 24.9558 65.9877 25.1124C65.958 35.6167 56.6609 44.2318 46 44.2715L46.1189 91.0542C46.0198 116.202 74.3947 137.54 96.0872 147.6C121.284 135.125 146 118.18 145.962 91.0324L146 44.1803C135.339 44.22 126.845 35.6187 126.875 25.1144C126.805 24.9578 126.892 24.7318 126.892 24.7318C126.892 24.7318 113.002 20.0198 96.1328 20C79.1067 20.0495 66.0056 24.7298 66.0056 24.7298Z" fill="white"/>
<path fill-rule="evenodd" clip-rule="evenodd" d="M136.711 51.1168C127.846 48.1578 120.991 40.6816 118.821 31.6015L118.77 31.388L118.554 31.3337C113.257 30.0718 105.026 28.5658 95.8855 28.5658C86.8613 28.5658 78.9457 30.0403 73.8944 31.2758L73.678 31.3278L73.6283 31.5446C71.4726 40.6513 64.6129 48.152 55.7258 51.1168L55.4775 51.1984V90.6227C55.4775 99.5913 60.1784 108.768 69.4464 117.889C78.2119 126.519 88.7193 132.758 95.9892 136.469L96.1533 136.553L96.3207 136.469C116.416 126.077 136.959 112.502 136.959 90.6227V51.1984L136.711 51.1168Z" fill="#0075FF"/>
<path fill-rule="evenodd" clip-rule="evenodd" d="M91.6818 64.5258C91.2394 65.4038 90.8113 66.2152 90.3405 66.9868C86.7016 72.9065 83.1348 79.1056 81.9644 85.9431C81.7361 87.2864 81.5652 88.7366 81.2653 90.08C80.8087 92.0621 79.6673 91.5431 77.9121 91.4104C76.0858 91.2772 74.5305 91.5566 74.9158 93.4989C75.0583 93.9643 75.2011 94.3237 75.3439 94.7359C75.7863 95.9335 76.2429 96.2259 76.7564 98.5138C76.999 99.5782 77.5268 103.556 78.1831 104.034C78.54 104.3 79.8528 104.646 80.4807 103.063C81.4509 100.629 81.7789 97.5563 83.8193 95.9335C86.6304 93.7247 99.5154 93.8713 103.639 94.6425C108.134 95.4945 109.689 97.2769 110.531 101.786C110.688 102.637 110.873 103.848 111.529 104.247C111.886 104.473 112.628 104.46 113.085 104.287C114.483 103.729 114.098 99.1924 115.996 94.9621C116.396 94.0975 116.766 93.0465 116.167 92.1422C115.539 91.2106 114.055 91.397 113.299 91.6629C112.2 92.0487 111.73 92.6205 110.945 91.3836C110.031 89.9338 109.404 88.231 108.847 86.4884L105.865 75.5936C105.665 74.0237 105.208 72.6803 104.923 71.2435L103.14 62.2911C102.94 61.2401 102.412 58.8055 102.484 57.7147H105.665V55.7326L85.974 55.7062L85.9313 57.6083C88.414 57.6217 90.3832 57.2891 91.7245 58.2869C93.7506 59.7899 92.6092 62.6635 91.6818 64.5258ZM101.185 92.0756C101.17 91.4238 100.585 89.6942 100.357 88.9892C98.9159 84.7459 96.904 77.4028 95.9766 73.2123L95.2348 69.9533C95.0634 69.2881 94.6923 67.0932 94.464 66.6676C94.3354 66.7074 94.2072 66.8138 94.0363 66.947C92.9087 68.0378 91.1397 70.8179 90.4402 72.1215C88.471 75.8194 86.8302 79.0654 85.76 83.3225C85.3319 85.0383 84.0476 89.4148 85.703 91.051C86.5592 91.8891 88.5569 92.1954 90.5403 92.1815L101.185 92.0756Z" fill="white"/>
</g>
<defs>
<filter id="filter0_d" x="6" y="0" width="180" height="207.6" filterUnits="userSpaceOnUse" color-interpolation-filters="sRGB">
<feFlood flood-opacity="0" result="BackgroundImageFix"/>
<feColorMatrix in="SourceAlpha" type="matrix" values="0 0 0 0 0 0 0 0 0 0 0 0 0 0 0 0 0 0 127 0" result="hardAlpha"/>
<feOffset dy="20"/>
<feGaussianBlur stdDeviation="20"/>
<feColorMatrix type="matrix" values="0 0 0 0 0 0 0 0 0 0 0 0 0 0 0 0 0 0 0.15 0"/>
<feBlend mode="normal" in2="BackgroundImageFix" result="effect1_dropShadow"/>
<feBlend mode="normal" in="SourceGraphic" in2="effect1_dropShadow" result="shape"/>
</filter>
</defs>
</svg>
