<svg width="18" height="22" viewBox="0 0 18 22" fill="none" xmlns="http://www.w3.org/2000/svg">
<path d="M1.68929 19.4677C-0.593133 17.0498 -0.550594 13.1508 1.74343 10.7418L9.93716 2.137C11.6683 0.318998 14.4821 0.318837 16.2134 2.137C17.9278 3.93743 17.9299 6.84237 16.2134 8.64493L9.07084 16.1385C7.90463 17.3631 5.99924 17.346 4.8528 16.0984C3.74831 14.8965 3.78374 12.9915 4.90952 11.8092L10.5245 5.9205C10.766 5.66728 11.1617 5.66295 11.4083 5.91083L12.3013 6.80832C12.548 7.05625 12.5522 7.4625 12.3107 7.71572L6.69635 13.6038C6.50369 13.8062 6.49182 14.1424 6.67104 14.3374C6.84182 14.5233 7.11029 14.5264 7.28385 14.344L14.4264 6.85055C15.1925 6.04599 15.1925 4.73606 14.4259 3.93105C13.6764 3.14393 12.4745 3.14353 11.7246 3.93105L3.53085 12.5358C2.17292 13.9619 2.15198 16.2703 3.48432 17.6817C4.81284 19.089 6.96029 19.0908 8.29127 17.6931L15.0124 10.6349C15.2536 10.3814 15.6493 10.3769 15.8962 10.6246L16.7898 11.5215C17.0366 11.7692 17.0411 12.1755 16.7998 12.4289L10.0787 19.4871C7.75154 21.931 3.98721 21.902 1.68929 19.4677Z" fill="#666666"/>
</svg>
