<svg width="64" height="64" viewBox="0 0 64 64" fill="none" xmlns="http://www.w3.org/2000/svg">
<rect opacity="0.15" width="64" height="64" rx="32" fill="#0075FF"/>
<path d="M45.4286 26.0001V41.4287C45.4286 42.8483 44.2768 44.0001 42.8571 44.0001H20.5714C19.1518 44.0001 18 42.8483 18 41.4287V26.0001C18 24.5805 19.1518 23.4287 20.5714 23.4287H25.2857L25.9446 21.6662C26.3196 20.6644 27.2786 20.0001 28.35 20.0001H35.0732C36.1446 20.0001 37.1036 20.6644 37.4786 21.6662L38.1429 23.4287H42.8571C44.2768 23.4287 45.4286 24.5805 45.4286 26.0001ZM38.1429 33.7144C38.1429 30.168 35.2607 27.2858 31.7143 27.2858C28.1679 27.2858 25.2857 30.168 25.2857 33.7144C25.2857 37.2608 28.1679 40.143 31.7143 40.143C35.2607 40.143 38.1429 37.2608 38.1429 33.7144ZM36.4286 33.7144C36.4286 36.3126 34.3125 38.4287 31.7143 38.4287C29.1161 38.4287 27 36.3126 27 33.7144C27 31.1162 29.1161 29.0001 31.7143 29.0001C34.3125 29.0001 36.4286 31.1162 36.4286 33.7144Z" fill="#0075FF"/>
</svg>
