<svg width="22" height="20" viewBox="0 0 22 20" fill="none" xmlns="http://www.w3.org/2000/svg">
<path d="M9 10C8.44769 10 8 10.4477 8 11C8 11.5523 8.44769 12 9 12H13C13.5522 12 14 11.5523 14 11C14 10.4477 13.5522 10 13 10H9Z" fill="#0075FF"/>
<path fill-rule="evenodd" clip-rule="evenodd" d="M3 0C1.34314 0 0 1.34314 0 3V17C0 18.6569 1.34314 20 3 20H19C20.6569 20 22 18.6569 22 17V3C22 1.34314 20.6569 0 19 0H3ZM19 2H3C2.44769 2 2 2.44769 2 3V6H20V3C20 2.44769 19.5522 2 19 2ZM2 17V8H20V17C20 17.5523 19.5522 18 19 18H3C2.44769 18 2 17.5523 2 17Z" fill="#0075FF"/>
</svg>
