<svg width="20" height="20" viewBox="0 0 20 20" fill="none" xmlns="http://www.w3.org/2000/svg">
<path d="M8.18182 10C7.67972 10 7.27273 10.4477 7.27273 11C7.27273 11.5523 7.67972 12 8.18182 12H11.8182C12.3202 12 12.7273 11.5523 12.7273 11C12.7273 10.4477 12.3202 10 11.8182 10H8.18182Z" fill="#0075FF"/>
<path fill-rule="evenodd" clip-rule="evenodd" d="M2.72727 0C1.22104 0 0 1.34314 0 3V17C0 18.6569 1.22104 20 2.72727 20H17.2727C18.779 20 20 18.6569 20 17V3C20 1.34314 18.779 0 17.2727 0H2.72727ZM17.2727 2H2.72727C2.22518 2 1.81818 2.44769 1.81818 3V6H18.1818V3C18.1818 2.44769 17.7748 2 17.2727 2ZM1.81818 17V8H18.1818V17C18.1818 17.5523 17.7748 18 17.2727 18H2.72727C2.22518 18 1.81818 17.5523 1.81818 17Z" fill="#0075FF"/>
</svg>
