<svg width="24" height="22" viewBox="0 0 24 22" fill="none" xmlns="http://www.w3.org/2000/svg">
<path fill-rule="evenodd" clip-rule="evenodd" d="M11.3429 5.25939L13.6293 0.623675C14.0424 -0.213135 15.2294 -0.202631 15.639 0.623675L17.9254 5.25939L23.0408 6.00517C23.9581 6.13822 24.3257 7.26914 23.6605 7.91688L19.9596 11.5232L20.835 16.6176C20.9925 17.5384 20.0227 18.2247 19.2104 17.7975L14.7645 15.4607L15.5668 20.1299C15.7244 21.0507 14.7545 21.737 13.9422 21.3098L9.36599 18.9044L4.78979 21.3098C3.97749 21.7405 3.00763 21.0507 3.16519 20.1299L4.04052 15.0355L0.339643 11.4291C-0.325604 10.7814 0.0420322 9.65048 0.959373 9.51743L6.07477 8.77165L8.36112 4.13593C8.77427 3.29912 9.96122 3.30962 10.3709 4.13593L10.8941 5.19679L11.3429 5.25939ZM13.7181 19.2931L12.8883 14.4473L16.4106 11.016L11.5438 10.3087L9.36599 5.89708L7.18818 10.3087L2.32138 11.016L5.84369 14.4473L5.01388 19.2931L9.36599 17.0067L13.7181 19.2931Z" fill="#0075FF"/>
</svg>
