<svg width="18" height="18" viewBox="0 0 18 18" fill="none" xmlns="http://www.w3.org/2000/svg">
<path d="M17.0781 5.77051L12.1626 5.05388L9.96561 0.599304C9.57196 -0.194713 8.4314 -0.204807 8.03439 0.599304L5.83739 5.05388L0.921884 5.77051C0.0403898 5.89836 -0.312881 6.98509 0.326371 7.60752L3.88263 11.0729L3.04151 15.9682C2.8901 16.8531 3.82207 17.5159 4.60262 17.1021L9 14.7907L13.3974 17.1021C14.1779 17.5125 15.1099 16.8531 14.9585 15.9682L14.1174 11.0729L17.6736 7.60752C18.3129 6.98509 17.9596 5.89836 17.0781 5.77051ZM12.3847 10.5077L13.182 15.1641L9 12.9671L4.81795 15.1641L5.61533 10.5077L2.23067 7.21051L6.90729 6.53088L9 2.29164L11.0927 6.53088L15.7693 7.21051L12.3847 10.5077Z" fill="#666666"/>
</svg>
