<svg width="64" height="64" viewBox="0 0 64 64" fill="none" xmlns="http://www.w3.org/2000/svg">
    <rect opacity="0.15" width="64" height="64" rx="32" fill="#EC3C24"/>
    <path fill-rule="evenodd" clip-rule="evenodd" d="M32 44C38.6274 44 44 38.6274 44 32C44 25.3726 38.6274 20 32 20C25.3726 20 20 25.3726 20 32C20 38.6274 25.3726 44 32 44ZM35.7407 40.5535C38.8304 39.2004 41.0463 36.2222 41.3075 32.7C40.2103 33.2985 38.8266 33.7891 37.2495 34.1306C37.051 36.6235 36.5103 38.8494 35.7407 40.5535ZM28.2593 23.4465C25.663 24.5835 23.6837 26.8681 22.9628 29.6587C23.2716 29.9517 23.7975 30.3121 24.5978 30.6677C25.1962 30.9337 25.894 31.173 26.6738 31.373C26.7447 28.2744 27.338 25.4865 28.2593 23.4465ZM29.4675 34.5477C29.6764 36.49 30.1136 38.1602 30.6656 39.4022C31.0576 40.2844 31.4554 40.8331 31.7624 41.1253C31.8716 41.2292 31.9506 41.2845 32 41.3131C32.0494 41.2845 32.1284 41.2292 32.2376 41.1253C32.5446 40.8331 32.9424 40.2844 33.3344 39.4022C33.8864 38.1602 34.3236 36.49 34.5325 34.5477C33.7161 34.6256 32.8688 34.6667 32 34.6667C31.1312 34.6667 30.2839 34.6256 29.4675 34.5477ZM26.7505 34.1306C26.949 36.6235 27.4897 38.8494 28.2593 40.5535C25.1696 39.2004 22.9537 36.2222 22.6925 32.7C23.7897 33.2984 25.1733 33.7891 26.7505 34.1306ZM34.6662 31.8528C33.8254 31.9478 32.9323 32 32 32C31.0677 32 30.1746 31.9478 29.3338 31.8528C29.3513 28.8854 29.8972 26.3267 30.6656 24.5978C31.0576 23.7156 31.4554 23.1669 31.7624 22.8747C31.8716 22.7708 31.9506 22.7155 32 22.6869C32.0494 22.7155 32.1284 22.7708 32.2376 22.8747C32.5446 23.1669 32.9424 23.7156 33.3344 24.5978C34.1028 26.3267 34.6487 28.8854 34.6662 31.8528ZM37.3262 31.373C37.2553 28.2744 36.662 25.4865 35.7407 23.4465C38.337 24.5835 40.3163 26.8681 41.0372 29.6587C40.7284 29.9517 40.2025 30.3121 39.4023 30.6677C38.8038 30.9337 38.106 31.173 37.3262 31.373Z" fill="#EC3C24"/>
</svg>
