<svg width="64" height="64" viewBox="0 0 64 64" fill="none" xmlns="http://www.w3.org/2000/svg">
<rect opacity="0.15" width="64" height="64" rx="32" fill="#0075FF"/>
<path d="M32 38C34.651 38 36.8 35.851 36.8 33.2H27.2C27.2 35.851 29.349 38 32 38Z" fill="#0075FF"/>
<path d="M29.6 29.6C29.6 30.2627 29.0627 30.8 28.4 30.8C27.7373 30.8 27.2 30.2627 27.2 29.6C27.2 28.9373 27.7373 28.4 28.4 28.4C29.0627 28.4 29.6 28.9373 29.6 29.6Z" fill="#0075FF"/>
<path d="M35.6 30.8C36.2627 30.8 36.8 30.2627 36.8 29.6C36.8 28.9373 36.2627 28.4 35.6 28.4C34.9373 28.4 34.4 28.9373 34.4 29.6C34.4 30.2627 34.9373 30.8 35.6 30.8Z" fill="#0075FF"/>
<path fill-rule="evenodd" clip-rule="evenodd" d="M44 32C44 38.6274 38.6274 44 32 44C25.3726 44 20 38.6274 20 32C20 25.3726 25.3726 20 32 20C38.6274 20 44 25.3726 44 32ZM41.6 32C41.6 37.3019 37.3019 41.6 32 41.6C26.6981 41.6 22.4 37.3019 22.4 32C22.4 26.6981 26.6981 22.4 32 22.4C37.3019 22.4 41.6 26.6981 41.6 32Z" fill="#0075FF"/>
</svg>
