<svg width="20" height="18" viewBox="0 0 20 18" fill="none" xmlns="http://www.w3.org/2000/svg">
<path d="M18 17.999H2C0.930516 18.035 0.0364164 17.0916 0 15.8887V2.11017C0.0364132 0.907463 0.930683 -0.0356059 2 0.00103238H18C19.0693 -0.0356059 19.9636 0.907463 20 2.11017V15.8899C19.963 17.0923 19.0691 18.035 18 17.999ZM2 2.25078V15.7369L18 15.7493V2.26315L2 2.25078ZM11.43 13.4995H4C4.07353 12.5682 4.46534 11.7052 5.093 11.0923C5.79183 10.3124 6.73081 9.86528 7.715 9.84367C8.69919 9.86528 9.63817 10.3124 10.337 11.0923C10.9645 11.7054 11.3563 12.5682 11.43 13.4995ZM16 12.3746H13V10.1249H16V12.3746ZM7.715 9.00002C7.17907 9.02097 6.65947 8.79067 6.28029 8.36414C5.9011 7.9376 5.69638 7.35312 5.715 6.75027C5.69668 6.14752 5.9015 5.56323 6.28062 5.13677C6.65974 4.71031 7.17916 4.47991 7.715 4.50052C8.25084 4.47991 8.77026 4.71031 9.14938 5.13677C9.5285 5.56323 9.73332 6.14752 9.715 6.75027C9.73362 7.35312 9.5289 7.9376 9.14971 8.36414C8.77053 8.79067 8.25093 9.02097 7.715 9.00002ZM16 7.87514H12V5.6254H16V7.87514Z" fill="#0075FF"/>
</svg>
