<svg width="20" height="22" viewBox="0 0 20 22" fill="none" xmlns="http://www.w3.org/2000/svg">
<path d="M19.3698 15.7291C18.3765 14.773 17.1429 13.5832 17.1429 8.9375C17.1429 5.52604 14.5611 2.69547 11.1758 2.15574C11.3407 1.92638 11.429 1.65397 11.4286 1.375C11.4286 0.615613 10.789 0 10 0C9.21103 0 8.57143 0.615613 8.57143 1.375C8.57143 1.66504 8.66495 1.93394 8.82424 2.15574C5.43888 2.69547 2.85714 5.52604 2.85714 8.9375C2.85714 13.5832 1.62308 14.773 0.629772 15.7291C-0.716166 17.0246 0.237718 19.25 2.145 19.25H7.14285C7.14285 20.7688 8.42205 22 10 22C11.5779 22 12.8571 20.7688 12.8571 19.25H17.8546C19.7581 19.25 20.7185 17.0272 19.3698 15.7291Z" fill="#0075FF"/>
</svg>
