<svg width="20" height="20" viewBox="0 0 20 20" fill="none" xmlns="http://www.w3.org/2000/svg">
<mask id="path-1-inside-1_3520:1781" fill="white">
<path d="M19.7746 12.3522L17.4669 10.2093C17.3955 10.143 17.3107 10.0903 17.2174 10.0544C17.1241 10.0185 17.0241 10 16.9231 10C16.8221 10 16.722 10.0185 16.6287 10.0544C16.5354 10.0903 16.4506 10.143 16.3792 10.2093L9.23077 16.8471V20H12.6262L19.7746 13.3622C19.8461 13.2959 19.9028 13.2171 19.9414 13.1305C19.9801 13.0438 20 12.951 20 12.8572C20 12.7634 19.9801 12.6705 19.9414 12.5838C19.9028 12.4972 19.8461 12.4185 19.7746 12.3522ZM11.9892 18.5714H10.7692V17.4387L14.6154 13.8672L15.8353 15L11.9892 18.5714ZM16.9231 13.9899L15.7032 12.8572L16.9231 11.7244L18.143 12.8572L16.9231 13.9899Z"/>
</mask>
<path d="M19.7746 12.3522L17.4669 10.2093C17.3955 10.143 17.3107 10.0903 17.2174 10.0544C17.1241 10.0185 17.0241 10 16.9231 10C16.8221 10 16.722 10.0185 16.6287 10.0544C16.5354 10.0903 16.4506 10.143 16.3792 10.2093L9.23077 16.8471V20H12.6262L19.7746 13.3622C19.8461 13.2959 19.9028 13.2171 19.9414 13.1305C19.9801 13.0438 20 12.951 20 12.8572C20 12.7634 19.9801 12.6705 19.9414 12.5838C19.9028 12.4972 19.8461 12.4185 19.7746 12.3522ZM11.9892 18.5714H10.7692V17.4387L14.6154 13.8672L15.8353 15L11.9892 18.5714ZM16.9231 13.9899L15.7032 12.8572L16.9231 11.7244L18.143 12.8572L16.9231 13.9899Z" fill="#0075FF"/>
<path d="M17.4669 10.2093L16.1054 11.6743L16.106 11.6749L17.4669 10.2093ZM17.2174 10.0544L17.9358 8.18787L17.2174 10.0544ZM16.9231 10V8V10ZM16.3792 10.2093L17.7401 11.6749L17.7408 11.6743L16.3792 10.2093ZM9.23077 16.8471L7.86988 15.3815L7.23077 15.9749V16.8471H9.23077ZM9.23077 20H7.23077V22H9.23077V20ZM12.6262 20V22H13.4116L13.9871 21.4656L12.6262 20ZM19.7746 13.3622L18.4144 11.896L18.4137 11.8966L19.7746 13.3622ZM20 12.8572H22H20ZM11.9892 18.5714V20.5714H12.7745L13.3501 20.037L11.9892 18.5714ZM10.7692 18.5714H8.76923V20.5714H10.7692V18.5714ZM10.7692 17.4387L9.40833 15.9731L8.76923 16.5665V17.4387H10.7692ZM14.6154 13.8672L15.9763 12.4016L14.6154 11.138L13.2545 12.4016L14.6154 13.8672ZM15.8353 15L17.1962 16.4656L18.7745 15L17.1962 13.5344L15.8353 15ZM16.9231 13.9899L15.5622 15.4555L16.9231 16.7192L18.284 15.4555L16.9231 13.9899ZM15.7032 12.8572L14.3422 11.3916L12.7639 12.8572L14.3422 14.3228L15.7032 12.8572ZM16.9231 11.7244L18.284 10.2588L16.9231 8.9951L15.5622 10.2588L16.9231 11.7244ZM18.143 12.8572L19.5039 14.3228L21.0822 12.8572L19.5039 11.3916L18.143 12.8572ZM21.1355 10.8866L18.8278 8.74372L16.106 11.6749L18.4137 13.8178L21.1355 10.8866ZM18.8285 8.74433C18.5654 8.49981 18.2609 8.31298 17.9358 8.18787L16.4991 11.9209C16.3606 11.8677 16.2257 11.7861 16.1054 11.6743L18.8285 8.74433ZM17.9358 8.18787C17.6109 8.06281 17.2671 8 16.9231 8V12C16.781 12 16.6374 11.9742 16.4991 11.9209L17.9358 8.18787ZM16.9231 8C16.579 8 16.2353 8.06281 15.9103 8.18787L17.3471 11.9209C17.2088 11.9742 17.0651 12 16.9231 12V8ZM15.9103 8.18787C15.5853 8.31298 15.2808 8.49981 15.0177 8.74433L17.7408 11.6743C17.6205 11.7861 17.4855 11.8677 17.3471 11.9209L15.9103 8.18787ZM15.0183 8.74372L7.86988 15.3815L10.5917 18.3127L17.7401 11.6749L15.0183 8.74372ZM7.23077 16.8471V20H11.2308V16.8471H7.23077ZM9.23077 22H12.6262V18H9.23077V22ZM13.9871 21.4656L21.1355 14.8277L18.4137 11.8966L11.2653 18.5344L13.9871 21.4656ZM21.1349 14.8284C21.3985 14.5838 21.6162 14.2853 21.7678 13.9457L18.1151 12.3153C18.1893 12.149 18.2937 12.0079 18.4144 11.896L21.1349 14.8284ZM21.7678 13.9457C21.9196 13.6056 22 13.2352 22 12.8572H18C18 12.6667 18.0407 12.4821 18.1151 12.3153L21.7678 13.9457ZM22 12.8572C22 12.4791 21.9196 12.1087 21.7678 11.7686L18.1151 13.399C18.0407 13.2322 18 13.0476 18 12.8572H22ZM21.7678 11.7686C21.6162 11.429 21.3985 11.1305 21.1349 10.886L18.4144 13.8184C18.2937 13.7064 18.1893 13.5653 18.1151 13.399L21.7678 11.7686ZM11.9892 16.5714H10.7692V20.5714H11.9892V16.5714ZM12.7692 18.5714V17.4387H8.76923V18.5714H12.7692ZM12.1301 18.9042L15.9763 15.3328L13.2545 12.4016L9.40833 15.9731L12.1301 18.9042ZM13.2545 15.3328L14.4744 16.4656L17.1962 13.5344L15.9763 12.4016L13.2545 15.3328ZM14.4744 13.5344L10.6283 17.1059L13.3501 20.037L17.1962 16.4656L14.4744 13.5344ZM18.284 12.5244L17.0641 11.3916L14.3422 14.3228L15.5622 15.4555L18.284 12.5244ZM17.0641 14.3228L18.284 13.19L15.5622 10.2588L14.3422 11.3916L17.0641 14.3228ZM15.5622 13.19L16.7821 14.3228L19.5039 11.3916L18.284 10.2588L15.5622 13.19ZM16.7821 11.3916L15.5622 12.5244L18.284 15.4555L19.5039 14.3228L16.7821 11.3916Z" fill="#0075FF" mask="url(#path-1-inside-1_3520:1781)"/>
<mask id="path-3-inside-2_3520:1781" fill="white">
<path d="M9.99997 9.28564H5.38459C4.77256 9.28564 4.18559 9.51141 3.75281 9.91327C3.32003 10.3151 3.0769 10.8602 3.0769 11.4285V12.1428H4.61536V11.4285C4.61536 11.2391 4.69641 11.0574 4.84067 10.9234C4.98492 10.7895 5.18058 10.7142 5.38459 10.7142H9.99997C10.204 10.7142 10.3996 10.7895 10.5439 10.9234C10.6882 11.0574 10.7692 11.2391 10.7692 11.4285V12.1428H12.3077V11.4285C12.3077 10.8602 12.0645 10.3151 11.6318 9.91327C11.199 9.51141 10.612 9.28564 9.99997 9.28564Z"/>
</mask>
<path d="M9.99997 9.28564H5.38459C4.77256 9.28564 4.18559 9.51141 3.75281 9.91327C3.32003 10.3151 3.0769 10.8602 3.0769 11.4285V12.1428H4.61536V11.4285C4.61536 11.2391 4.69641 11.0574 4.84067 10.9234C4.98492 10.7895 5.18058 10.7142 5.38459 10.7142H9.99997C10.204 10.7142 10.3996 10.7895 10.5439 10.9234C10.6882 11.0574 10.7692 11.2391 10.7692 11.4285V12.1428H12.3077V11.4285C12.3077 10.8602 12.0645 10.3151 11.6318 9.91327C11.199 9.51141 10.612 9.28564 9.99997 9.28564Z" fill="#0075FF"/>
<path d="M3.0769 12.1428H1.0769V14.1428H3.0769V12.1428ZM4.61536 12.1428V14.1428H6.61536V12.1428H4.61536ZM10.7692 12.1428H8.7692V14.1428H10.7692V12.1428ZM12.3077 12.1428V14.1428H14.3077V12.1428H12.3077ZM12.3077 11.4285H14.3077H12.3077ZM9.99997 7.28564H5.38459V11.2856H9.99997V7.28564ZM5.38459 7.28564C4.28798 7.28564 3.20919 7.68878 2.39191 8.44768L5.11371 11.3789C5.16198 11.334 5.25713 11.2856 5.38459 11.2856V7.28564ZM2.39191 8.44768C1.56963 9.21123 1.0769 10.2799 1.0769 11.4285H5.0769C5.0769 11.4312 5.07608 11.43 5.07908 11.4232C5.08223 11.4162 5.09123 11.3997 5.11371 11.3789L2.39191 8.44768ZM1.0769 11.4285V12.1428H5.0769V11.4285H1.0769ZM3.0769 14.1428H4.61536V10.1428H3.0769V14.1428ZM6.61536 12.1428V11.4285H2.61536V12.1428H6.61536ZM6.61536 11.4285C6.61536 11.8193 6.44682 12.1613 6.20157 12.389L3.47976 9.45784C2.946 9.95347 2.61536 10.6588 2.61536 11.4285H6.61536ZM6.20157 12.389C5.96132 12.6121 5.66515 12.7142 5.38459 12.7142V8.71421C4.69601 8.71421 4.00853 8.96684 3.47976 9.45784L6.20157 12.389ZM5.38459 12.7142H9.99997V8.71421H5.38459V12.7142ZM9.99997 12.7142C9.71942 12.7142 9.42325 12.6121 9.183 12.389L11.9048 9.45784C11.376 8.96684 10.6886 8.71421 9.99997 8.71421V12.7142ZM9.183 12.389C8.93775 12.1613 8.7692 11.8193 8.7692 11.4285H12.7692C12.7692 10.6588 12.4386 9.95348 11.9048 9.45784L9.183 12.389ZM8.7692 11.4285V12.1428H12.7692V11.4285H8.7692ZM10.7692 14.1428H12.3077V10.1428H10.7692V14.1428ZM14.3077 12.1428V11.4285H10.3077V12.1428H14.3077ZM14.3077 11.4285C14.3077 10.2799 13.8149 9.21123 12.9927 8.44768L10.2709 11.3789C10.2933 11.3997 10.3023 11.4162 10.3055 11.4232C10.3085 11.43 10.3077 11.4312 10.3077 11.4285L14.3077 11.4285ZM12.9927 8.44768C12.1754 7.68878 11.0966 7.28564 9.99997 7.28564V11.2856C10.1274 11.2856 10.2226 11.334 10.2709 11.3789L12.9927 8.44768Z" fill="#0075FF" mask="url(#path-3-inside-2_3520:1781)"/>
<mask id="path-5-inside-3_3520:1781" fill="white">
<path d="M7.69228 8.57146C8.30083 8.57146 8.89572 8.40389 9.40172 8.08994C9.90772 7.776 10.3021 7.32977 10.535 6.8077C10.7679 6.28562 10.8288 5.71115 10.7101 5.15692C10.5913 4.60269 10.2983 4.09359 9.86798 3.69402C9.43767 3.29444 8.88942 3.02232 8.29255 2.91208C7.69569 2.80183 7.07702 2.85842 6.51479 3.07467C5.95256 3.29092 5.47201 3.65712 5.13391 4.12698C4.79581 4.59683 4.61536 5.14923 4.61536 5.71432C4.61536 6.47208 4.93953 7.1988 5.51656 7.73462C6.0936 8.27044 6.87623 8.57146 7.69228 8.57146ZM7.69228 4.28575C7.99655 4.28575 8.294 4.36953 8.547 4.52651C8.8 4.68348 8.99718 4.90659 9.11363 5.16763C9.23007 5.42867 9.26054 5.7159 9.20117 5.99302C9.14181 6.27013 8.99529 6.52468 8.78013 6.72447C8.56497 6.92426 8.29085 7.06032 7.99241 7.11544C7.69398 7.17056 7.38465 7.14227 7.10353 7.03414C6.82242 6.92602 6.58214 6.74292 6.41309 6.50799C6.24405 6.27306 6.15382 5.99686 6.15382 5.71432C6.15382 5.33544 6.3159 4.97208 6.60442 4.70417C6.89294 4.43626 7.28425 4.28575 7.69228 4.28575Z"/>
</mask>
<path d="M7.69228 8.57146C8.30083 8.57146 8.89572 8.40389 9.40172 8.08994C9.90772 7.776 10.3021 7.32977 10.535 6.8077C10.7679 6.28562 10.8288 5.71115 10.7101 5.15692C10.5913 4.60269 10.2983 4.09359 9.86798 3.69402C9.43767 3.29444 8.88942 3.02232 8.29255 2.91208C7.69569 2.80183 7.07702 2.85842 6.51479 3.07467C5.95256 3.29092 5.47201 3.65712 5.13391 4.12698C4.79581 4.59683 4.61536 5.14923 4.61536 5.71432C4.61536 6.47208 4.93953 7.1988 5.51656 7.73462C6.0936 8.27044 6.87623 8.57146 7.69228 8.57146ZM7.69228 4.28575C7.99655 4.28575 8.294 4.36953 8.547 4.52651C8.8 4.68348 8.99718 4.90659 9.11363 5.16763C9.23007 5.42867 9.26054 5.7159 9.20117 5.99302C9.14181 6.27013 8.99529 6.52468 8.78013 6.72447C8.56497 6.92426 8.29085 7.06032 7.99241 7.11544C7.69398 7.17056 7.38465 7.14227 7.10353 7.03414C6.82242 6.92602 6.58214 6.74292 6.41309 6.50799C6.24405 6.27306 6.15382 5.99686 6.15382 5.71432C6.15382 5.33544 6.3159 4.97208 6.60442 4.70417C6.89294 4.43626 7.28425 4.28575 7.69228 4.28575Z" fill="#0075FF"/>
<path d="M4.61536 5.71432H2.61536H4.61536ZM7.69228 10.5715C8.66481 10.5715 9.62628 10.3043 10.4562 9.7894L8.34729 6.39048C8.16516 6.50348 7.93685 6.57146 7.69228 6.57146V10.5715ZM10.4562 9.7894C11.2872 9.27376 11.9585 8.52585 12.3615 7.62246L8.70846 5.99293C8.64567 6.1337 8.52821 6.27823 8.34729 6.39048L10.4562 9.7894ZM12.3615 7.62246C12.7655 6.71681 12.874 5.71055 12.6657 4.73799L8.75444 5.57584C8.78355 5.71174 8.77024 5.85444 8.70846 5.99293L12.3615 7.62246ZM12.6657 4.73799C12.4577 3.76694 11.9487 2.89682 11.2289 2.22843L8.50708 5.1596C8.64791 5.29037 8.725 5.43843 8.75444 5.57584L12.6657 4.73799ZM11.2289 2.22843C10.5106 1.56149 9.61283 1.12211 8.65582 0.945345L7.92929 4.87881C8.166 4.92253 8.3647 5.02739 8.50708 5.1596L11.2289 2.22843ZM8.65582 0.945345C7.69912 0.768639 6.70609 0.85825 5.79681 1.20798L7.23277 4.94135C7.44796 4.85858 7.69226 4.83503 7.92929 4.87881L8.65582 0.945345ZM5.79681 1.20798C4.88681 1.55799 4.08556 2.15967 3.51052 2.95882L6.75731 5.29513C6.85845 5.15457 7.0183 5.02384 7.23277 4.94135L5.79681 1.20798ZM3.51052 2.95882C2.93394 3.76009 2.61536 4.71919 2.61536 5.71432H6.61536C6.61536 5.57927 6.65769 5.43357 6.75731 5.29513L3.51052 2.95882ZM2.61536 5.71432C2.61536 7.05235 3.18912 8.30271 4.15566 9.20021L6.87747 6.26903C6.68994 6.0949 6.61536 5.89181 6.61536 5.71432H2.61536ZM4.15566 9.20021C5.1172 10.0931 6.39165 10.5715 7.69228 10.5715V6.57146C7.3608 6.57146 7.06999 6.44781 6.87747 6.26903L4.15566 9.20021ZM7.69228 6.28575C7.63257 6.28575 7.56344 6.26994 7.49256 6.22597L9.60143 2.82704C9.02456 2.46912 8.36053 2.28575 7.69228 2.28575V6.28575ZM7.49256 6.22597C7.42049 6.18125 7.34076 6.10267 7.28711 5.98239L10.9401 4.35286C10.6536 3.71052 10.1795 3.18571 9.60143 2.82704L7.49256 6.22597ZM7.28711 5.98239C7.23245 5.85985 7.21529 5.71531 7.24554 5.5741L11.1568 6.41194C11.3058 5.7165 11.2277 4.99748 10.9401 4.35286L7.28711 5.98239ZM7.24554 5.5741C7.27547 5.43439 7.3449 5.3279 7.41923 5.25888L10.141 8.19006C10.6457 7.72146 11.0082 7.10588 11.1568 6.41194L7.24554 5.5741ZM7.41923 5.25888C7.492 5.19131 7.56743 5.1601 7.62915 5.1487L8.35568 9.08217C9.01426 8.96053 9.63795 8.65721 10.141 8.19006L7.41923 5.25888ZM7.62915 5.1487C7.69055 5.13736 7.75558 5.1421 7.82151 5.16746L6.38556 8.90083C7.01372 9.14244 7.69741 9.20376 8.35568 9.08217L7.62915 5.1487ZM7.82151 5.16746C7.88816 5.1931 7.96858 5.24547 8.03649 5.33983L4.7897 7.67615C5.1957 8.24037 5.75667 8.65894 6.38556 8.90083L7.82151 5.16746ZM8.03649 5.33983C8.10592 5.43632 8.15382 5.56682 8.15382 5.71432H4.15382C4.15382 6.4269 4.38217 7.1098 4.7897 7.67615L8.03649 5.33983ZM8.15382 5.71432C8.15382 5.91571 8.06631 6.07598 7.96532 6.16975L5.24352 3.23858C4.5655 3.86817 4.15382 4.75516 4.15382 5.71432H8.15382ZM7.96532 6.16975C7.86933 6.25889 7.76883 6.28575 7.69228 6.28575V2.28575C6.79967 2.28575 5.91654 2.61363 5.24352 3.23858L7.96532 6.16975Z" fill="#0075FF" mask="url(#path-5-inside-3_3520:1781)"/>
<path d="M1 18.5707V1.42932C1 1.42907 1 1.42882 1 1.42857L1 18.5707ZM0.53846 18.5708L0 18.5714L0.53846 18.5708Z" fill="#0075FF" stroke="#0075FF" stroke-width="2"/>
</svg>
