<svg width="20" height="14" viewBox="0 0 20 14" fill="none" xmlns="http://www.w3.org/2000/svg">
<path fill-rule="evenodd" clip-rule="evenodd" d="M2.5 0C1.11929 0 0 1.44646 0 3.23077V10.7692C0 12.5535 1.11929 14 2.5 14H17.5C18.8807 14 20 12.5535 20 10.7692V3.23077C20 1.44646 18.8807 0 17.5 0H2.5ZM7.5 2.15385H5.83333V7.53846C5.83333 8.13323 5.46024 8.61539 5 8.61539C4.53976 8.61539 4.16667 8.13323 4.16667 7.53846V2.15385H2.5C2.03976 2.15385 1.66667 2.636 1.66667 3.23077V10.7692C1.66667 11.364 2.03976 11.8462 2.5 11.8462H17.5C17.9602 11.8462 18.3333 11.364 18.3333 10.7692V3.23077C18.3333 2.636 17.9602 2.15385 17.5 2.15385H15.8333V5.38462C15.8333 5.97938 15.4602 6.46154 15 6.46154C14.5398 6.46154 14.1667 5.97938 14.1667 5.38462V2.15385H12.5V7.53846C12.5 8.13323 12.1269 8.61539 11.6667 8.61539C11.2064 8.61539 10.8333 8.13323 10.8333 7.53846V2.15385H9.16667V5.38462C9.16667 5.97938 8.79357 6.46154 8.33333 6.46154C7.8731 6.46154 7.5 5.97938 7.5 5.38462V2.15385Z" fill="#0075FF"/>
</svg>
