<svg width="20" height="20" viewBox="0 0 20 20" fill="none" xmlns="http://www.w3.org/2000/svg">
<path d="M4.44444 16H15.5556V14H4.44444V16Z" fill="#0075FF"/>
<path d="M15.5556 12H4.44444V10H15.5556V12Z" fill="#0075FF"/>
<path d="M4.44444 8H8.88889V6H4.44444V8Z" fill="#0075FF"/>
<path fill-rule="evenodd" clip-rule="evenodd" d="M3.33333 0C1.49238 0 0 1.34315 0 3V17C0 18.6569 1.49238 20 3.33333 20H16.6667C18.5076 20 20 18.6569 20 17V7C20 3.13401 16.5178 0 12.2222 0H3.33333ZM3.33333 2H11.1111V7H17.7778V17C17.7778 17.5523 17.2803 18 16.6667 18H3.33333C2.71968 18 2.22222 17.5523 2.22222 17V3C2.22222 2.44772 2.71968 2 3.33333 2ZM13.3333 2.10002C15.1237 2.4271 16.6014 3.52906 17.3155 5H13.3333V2.10002Z" fill="#0075FF"/>
</svg>
