<svg width="20" height="18" viewBox="0 0 20 18" fill="none" xmlns="http://www.w3.org/2000/svg">
<path fill-rule="evenodd" clip-rule="evenodd" d="M10.5263 4C10.5263 6.20914 8.6412 8 6.31579 8C3.99038 8 2.10526 6.20914 2.10526 4C2.10526 1.79086 3.99038 0 6.31579 0C8.6412 0 10.5263 1.79086 10.5263 4ZM8.42105 4C8.42105 5.10457 7.47849 6 6.31579 6C5.15308 6 4.21053 5.10457 4.21053 4C4.21053 2.89543 5.15308 2 6.31579 2C7.47849 2 8.42105 2.89543 8.42105 4ZM10.5263 12C10.5263 11.4477 10.055 11 9.47368 11H3.15789C2.57654 11 2.10526 11.4477 2.10526 12V18H0V12C0 10.3431 1.41384 9 3.15789 9H9.47368C11.2177 9 12.6316 10.3431 12.6316 12V18H10.5263V12ZM13.6842 10V1.5L15.7895 1.5L15.7895 10H13.6842ZM17.8947 10V4H20V10H17.8947Z" fill="#0075FF"/>
</svg>
